<svg width="55" height="35" viewBox="0 0 55 35" fill="none" xmlns="http://www.w3.org/2000/svg">
<g clip-path="url(#clip0_1_827)">
<path d="M48.7002 31.623C48.94 32.0816 48.7438 32.6236 48.2642 32.8529C47.4358 33.249 46.5421 33.5825 45.6047 33.8744C45.5175 33.8952 45.4303 33.9161 45.3649 33.9161C44.9289 33.9369 44.5365 33.6868 44.4057 33.2907C44.2313 32.8112 44.5147 32.2901 45.0161 32.1233C45.8663 31.8523 46.6729 31.5396 47.414 31.1853C47.8936 30.9768 48.4604 31.1644 48.7002 31.623ZM35.4244 13.7999C35.359 14.0501 35.359 14.3002 35.4462 14.5295L36.9503 18.3234C37.5825 18.1984 38.2365 18.0941 38.9123 18.0316C42.7054 17.5938 46.3895 18.0108 49.2888 19.199C52.3625 20.4497 54.2155 22.4301 54.5207 24.7856C54.8041 27.0161 53.6051 29.2883 51.12 31.1644C50.7058 31.4771 50.0954 31.4146 49.7684 31.0185C49.4414 30.6224 49.5068 30.0387 49.921 29.7261C51.8393 28.2669 52.7985 26.5992 52.6023 25.0149C52.3843 23.3473 50.9456 21.8881 48.5258 20.9083C45.9317 19.8452 42.5964 19.4908 39.1303 19.8869C38.6289 19.9494 38.1275 20.0119 37.6261 20.1162L38.9995 23.6183C38.9123 23.6808 38.9341 23.66 38.8251 23.7016L36.1001 20.4497C30.7593 21.8047 26.9226 24.9107 27.2932 27.9333C27.7509 31.4979 33.8984 33.8535 40.7434 33.0614C41.2666 32.9988 41.7462 33.3532 41.8116 33.8744C41.877 34.3747 41.5064 34.8333 40.9614 34.8958C40.4382 34.9583 39.8932 35 39.3701 35.0209C31.9364 35.4378 25.898 32.5611 25.353 28.1418C24.8734 24.2645 28.7973 20.5748 34.7486 18.8654L32.2852 15.9053C31.9364 15.4676 31.4569 15.1549 30.9119 14.9673L29.5603 14.5295C28.9499 14.3211 28.2741 14.3211 27.642 14.5087L25.3748 15.1966C26.8136 16.6141 27.5984 18.3026 27.5112 20.1162C27.4022 22.4509 25.789 24.5563 22.9769 26.0364C20.9059 27.1203 18.3336 27.7874 15.5869 27.9333C14.8239 27.975 14.0609 27.975 13.2761 27.9333C12.7529 27.9125 12.3387 27.4747 12.3605 26.9744C12.3823 26.4741 12.8401 26.0781 13.3633 26.0989C16.6114 26.2448 19.707 25.6611 22.0395 24.4104C24.2412 23.2639 25.4838 21.7005 25.571 20.0119C25.6364 18.4902 24.7426 17.031 23.1949 15.8428L16.7204 17.8023C16.6986 17.7189 16.6768 17.6564 16.6332 17.5938L21.8215 14.9256C19.7506 13.7791 17.0256 12.9869 14.0391 12.8619C10.791 12.7159 7.69546 13.2996 5.36292 14.5504C3.27017 15.6552 2.0058 17.2186 1.9404 18.9071C1.85321 20.679 3.09578 22.4717 5.38472 23.8267C5.84251 24.0977 5.9733 24.6605 5.68991 25.0983C5.40652 25.5361 4.81793 25.6611 4.36014 25.3901C1.46082 23.66 -0.108743 21.2627 0.000254387 18.8029C0.131051 16.4682 1.72241 14.3627 4.53454 12.8827C7.19407 11.486 10.6384 10.819 14.2353 10.9857C18.0938 11.1525 21.5163 12.2573 23.9142 13.8833L25.6364 13.0078C25.8108 12.9244 25.9634 12.7993 26.0724 12.6534L27.206 11.2776C27.3804 11.0483 27.4894 10.7981 27.5112 10.5271C27.0752 10.6314 26.6174 10.7147 26.1596 10.7981C25.571 10.8815 24.9824 10.944 24.4156 10.9857C22.6281 11.09 20.9277 10.8815 19.489 10.4229C17.3962 9.73499 16.11 8.50509 15.8485 7.0042C15.3253 4.00241 19.053 1.04232 24.3284 0.208489C29.6039 -0.625341 34.1382 1.06316 34.6396 4.02326C35.0102 6.17037 33.1354 8.33833 30.0399 9.67246C30.4323 9.98514 30.8901 10.2144 31.3915 10.3187L33.1354 10.6522C33.4624 10.7147 33.7894 10.7147 34.1164 10.6731L35.7949 10.4437C35.6205 9.94345 35.5333 9.44315 35.5769 8.90116C35.7513 5.545 40.133 3.0852 45.5829 3.33535C48.1116 3.46043 50.466 4.14833 52.2099 5.29485C54.0847 6.52475 55.0657 8.10903 54.9785 9.79753C54.8259 12.8202 51.2725 15.0923 46.6075 15.3425C46.0843 15.3633 45.5175 15.3842 44.9725 15.3425C41.4846 15.1757 38.5199 13.9458 36.9067 12.1948L36.0129 12.5909C35.8603 12.6534 35.7513 12.7785 35.7077 12.9244L35.4244 13.7999ZM37.2119 8.98455C37.1901 9.40146 37.2773 9.81838 37.4735 10.2144L42.4874 9.54738C42.5092 9.65161 42.5092 9.63076 42.531 9.73499L38.4763 11.5069C39.8932 12.7576 42.313 13.654 45.0161 13.7791C49.376 13.9875 53.1691 12.1114 53.2999 9.71415C53.3653 8.60932 52.6241 7.5045 51.2508 6.58729C49.7466 5.60754 47.6974 5.00301 45.4739 4.89878C41.1358 4.73202 37.3427 6.58729 37.2119 8.98455ZM32.743 4.3151C32.4378 2.54321 29.2333 1.70938 26.0724 1.87615C25.5928 1.89699 25.1132 1.95953 24.6554 2.02207C21.1021 2.5849 17.3744 4.62779 17.7232 6.67067C17.854 7.48365 18.726 8.19241 20.0993 8.65102C21.6907 9.17216 23.7181 9.29723 25.8326 8.9637C26.225 8.90116 26.6174 8.81778 26.988 8.7344L26.3122 6.7749C26.3994 6.71236 26.3994 6.73321 26.4866 6.67067L28.4049 8.31748C30.9555 7.40027 33.0046 5.85769 32.743 4.3151ZM10.355 25.682C9.50481 25.5152 8.67643 25.2859 7.89165 24.9941C7.39027 24.8065 6.84528 25.0566 6.64909 25.5361C6.45289 26.0155 6.71448 26.5367 7.21587 26.7243C8.08785 27.037 9.00343 27.2871 9.9626 27.4747C10.0498 27.4956 10.137 27.4956 10.2242 27.4956C10.6384 27.4747 11.009 27.1829 11.118 26.766C11.2052 26.2657 10.8782 25.7862 10.355 25.682ZM15.3253 19.053C15.3471 18.4277 14.5187 17.8648 13.4505 17.8231C12.3823 17.7815 11.4886 18.2401 11.445 18.8654C11.4232 19.4908 12.2515 20.0536 13.3197 20.0953C14.3879 20.137 15.2817 19.6784 15.3253 19.053ZM25.1132 4.8154C24.3938 4.91963 23.8706 5.3157 23.9142 5.69092C23.9796 6.06614 24.6118 6.2746 25.3312 6.17037C26.0506 6.06614 26.5738 5.67007 26.5302 5.29485C26.4648 4.91963 25.8326 4.71117 25.1132 4.8154ZM45.2341 10.1936C46.0189 10.2353 46.6729 9.88091 46.6947 9.42231C46.7165 8.9637 46.1061 8.54679 45.2995 8.52594C44.5147 8.48425 43.8607 8.83863 43.8389 9.29723C43.8171 9.75584 44.4493 10.1519 45.2341 10.1936ZM39.8278 25.3068C38.6943 25.4318 37.8441 26.0572 37.9095 26.6826C37.9967 27.308 38.9777 27.704 40.1112 27.579C41.2448 27.4539 42.095 26.8285 42.0296 26.2031C41.9642 25.5778 40.9614 25.1608 39.8278 25.3068Z" fill="black"/>
</g>
<defs>
<clipPath id="clip0_1_827">
<rect width="55" height="35" fill="white"/>
</clipPath>
</defs>
</svg>
